<svg xmlns="http://www.w3.org/2000/svg" viewBox="0 0 360.44 237.1"><defs><style>.cls-1{isolation:isolate;}.cls-2,.cls-4{mix-blend-mode:overlay;}.cls-3,.cls-4{fill:#005c7f;}</style></defs><title>Asset 4</title><g class="cls-1"><g id="Layer_2" data-name="Layer 2"><g id="_1" data-name="1"><g class="cls-2"><path class="cls-3" d="M334.53,221.54H16.11V19.27H334.53ZM17.19,220.42H333.45v-200H17.19Z"/><rect class="cls-3" x="16.65" y="186.9" width="317.34" height="1.12"/><rect class="cls-3" x="16.65" y="153.37" width="317.34" height="1.12"/><rect class="cls-3" x="16.65" y="119.85" width="317.34" height="1.12"/><rect class="cls-3" x="16.65" y="86.32" width="317.34" height="1.12"/><rect class="cls-3" x="16.65" y="52.8" width="317.34" height="1.12"/><rect class="cls-3" x="280.56" y="19.83" width="1.08" height="201.15"/><rect class="cls-3" x="227.67" y="19.83" width="1.08" height="201.15"/><rect class="cls-3" x="174.78" y="19.83" width="1.08" height="201.15"/><rect class="cls-3" x="121.89" y="19.83" width="1.08" height="201.15"/><rect class="cls-3" x="69" y="19.83" width="1.08" height="201.15"/></g><polygon class="cls-4" points="342.33 218.83 342.33 224.34 12.06 224.34 12.06 18.68 17.7 18.68 8.74 0 0 18.68 5.34 18.68 5.34 230.95 8.85 230.95 8.85 231.27 342.33 231.27 342.33 237.1 360.44 227.85 342.33 218.83"/></g></g></g></svg>