<svg xmlns="http://www.w3.org/2000/svg" viewBox="0 0 117.56 314.21"><defs><style>.cls-1{fill:#ffc3b8;}.cls-2{fill:#c49895;}.cls-3{fill:#dbaba5;}.cls-4{fill:#e5b5ac;}.cls-5{fill:#171b21;}.cls-6{fill:#fff;}.cls-7{fill:#d6a9a3;}.cls-8{fill:#1f242b;}.cls-9{fill:#313745;}.cls-10{fill:#232730;}.cls-11{fill:#96cfe2;}.cls-12{fill:#2a2f38;}.cls-13{fill:#bfe9ff;}.cls-14{fill:#3a414f;}</style></defs><title>Asset 3</title><g id="Layer_2" data-name="Layer 2"><g id="_1" data-name="1"><path class="cls-1" d="M110.13,38.8a43.31,43.31,0,0,1,2.4-5.91,64.1,64.1,0,0,1,3.42-6.18,2.65,2.65,0,0,0-1-.85l-1.37-.07a23.56,23.56,0,0,0-4.35,5.88c-1.08,2.16-2.3,4.71-3.37,7.27a37.78,37.78,0,0,1-2.57,5.22c-.17-1.86,3.17-10.43-.48-10.54C101.74,36.85,99,45.19,99,45.19s.87,5.58,1.39,8.06c.31,1.49.46,2.78,2.06,3.18s3.3,1.16,5,1.63c.8.22.84-.11,1.64.11l.78.22c.08,0,.31.14.4.11s.12-.16.18-.27l.39-.77c.35-.69,3-2.86,3.43-3.51s3.39-9.14,3.28-8.92c.29-.62-1.68-2.16-2.21-2.52-.26-.18-2.66-1.4-2.67-1.52a2.34,2.34,0,0,0-1-1.59C111.57,39.34,110.13,38.39,110.13,38.8Z"/><polygon class="cls-2" points="44.08 33.86 40.15 44.29 54.51 55.57 62.65 50.85 64.91 30.79 44.08 33.86"/><path class="cls-3" d="M41.83,35,48,40.84c-1.06-5.36-3.91-9.79-7.06-14.46Z"/><path class="cls-4" d="M67.65,29.25l1.1-7.38c.06-3,.23-5.93.18-8.88a3.94,3.94,0,0,0-2.16-3.76c-2-1.23-3.5-.66-5.28-.09a15.18,15.18,0,0,1-1.86.5c-1.89.35-4,.66-5.77-.21C50.92,8,48.1,5.74,44.55,5.84a4.62,4.62,0,0,0-1.83.39,4.58,4.58,0,0,0-2.22,2.89c-.81,2.51,0,4.71,0,7.21q-.05,2.53-.11,5l.53,5c3.15,4.67,6,9.1,7.06,14.46l2.16,2,4,.07,4,.07L61,40.5C61.18,35.66,63,30.88,67.65,29.25Z"/><path class="cls-3" d="M67.65,29.25C63,30.88,61.18,35.66,61,40.5l5.75-5.06Z"/><path class="cls-4" d="M42.11,21.35c-.17-1.32-.3-2.37-.38-2.67s-.22-.61-.53-.69a1,1,0,0,0-.51.06c-1.3.43-1.71,1.3-2.77,1.94.41,1,2.9,8.77,3.55,8.79l2.49,0C43.13,28.82,42.51,24.37,42.11,21.35Z"/><path class="cls-4" d="M67,21.78A9.2,9.2,0,0,1,68,18.89c.26-.49.82-1.05,1.34-.79a1.07,1.07,0,0,1,.35.33,10.5,10.5,0,0,0,1.64,2.13c-1.38,2.85-2.62,5.77-3.93,8.65l-2.49,0a38.27,38.27,0,0,0,1.74-4.9C66.79,23.39,66.88,22.58,67,21.78Z"/><path class="cls-5" d="M41.51,23.78c-.19-2.27-.3-4.55-.68-6.79-.5-3,1.23-6,3-8.52A2.22,2.22,0,0,1,45,7.5a2.66,2.66,0,0,1,2,.62,47,47,0,0,0,6.53,3,40.91,40.91,0,0,0,7.06-.17c1.58-.3,3.74-1.38,5.31-.43,1.28.78,1.58,3.11,2.08,4.49l-.18,11.24,1.58-4.45c1.27-3.92,1.79-13,1.79-13s-6.18-6.6-9.92-6c1.32-.22,3.73.21,5,0C61.36,1.1,57.27-.46,53.12.12A25.7,25.7,0,0,0,41.79,4.78a29,29,0,0,0-3.7,3.73S37.88,18.28,41.51,23.78Z"/><path class="cls-6" d="M48.44,33.22a21.46,21.46,0,0,0,12.13,0L59.2,35.84a8.68,8.68,0,0,1-5.49,1.1,8.31,8.31,0,0,1-3.07-1.1Z"/><path class="cls-5" d="M43.6,21.53s4.11-2.12,7.71-1.13a3,3,0,0,1,0,2.83S50.79,20.3,43.6,21.53Z"/><path class="cls-5" d="M65.6,21.36s-4.11-2.12-7.71-1.13a3,3,0,0,0,0,2.83S58.41,20.14,65.6,21.36Z"/><path class="cls-7" d="M52.26,29.22l1.37,1.56a4,4,0,0,0,5.33-2l-1.59,3.94-4.45-.16Z"/><g id="_1-2" data-name="1"><path class="cls-1" d="M7.22,156.25l4.48-1.67c.43-.16,1-.61,1.47-.58.19,0,.5,0,.63.29,2.16,4.12,3.58,5,4.7,8.09.2.54-.15,4.14-.56,4,.33,1.74.44,2.39.72,4.14.11.67,0,7.3,0,7.3s-1.58.85-2.11-.18c-.37-.72-.1-5.14-.38-5.92-.53-1.45-1-3.48-1.57-4.68a53.39,53.39,0,0,0,1.45,11.15c.21.82-.65.79-1.39,1.07-.5.19-.88-.22-1.2-.7a34.3,34.3,0,0,1-1.15-4.72c-.47-2.63-.46-2.73-1.16-5.58a36.5,36.5,0,0,0,.92,9.18c.3,1.16-.29,1.42-.71,1.53a.9.9,0,0,1-1.05-.37c-1.2-2.74-1-.61-1.4-.57a1.54,1.54,0,0,1-1.12-.66c-2.3-5.56-3.89-9.65-4.95-13-1-3.1,1.11-8.15.3-11.34C3.14,153.06,7,156.36,7.22,156.25Z"/><path class="cls-5" d="M91,310.35l-1.33-4.42-13.11-9.82-4.65-5.18-14.62-1v11.88l7.88.6,5.64,5.13,11.48,3L90,312.26C90.29,311.62,90.61,311,91,310.35Z"/><path d="M90.27,312.39c0-.34.08-.69.13-1l-7.46-1.67-11.46-3.12-5.83-5.47-8.35-.66L57.18,302l7.79.62L70.68,308l12,3.28,7.49,1.64C90.24,312.75,90.25,312.57,90.27,312.39Z"/><polygon class="cls-8" points="32.23 294.48 32.23 301.12 32.23 306.94 39.8 307.68 42.44 307.68 51.44 312.92 76.96 313.41 76.96 308.35 59.38 302.57 52.73 296.94 47.98 290.59 32.23 294.48"/><polygon points="76.96 314.21 51.19 313.72 42.2 308.48 32.23 307.73 32.23 306.14 42.69 306.88 51.69 312.12 76.96 312.61 76.96 314.21"/><path class="cls-9" d="M40.53,133.45c-1,0-.34.28,1.4.72A2,2,0,0,0,40.53,133.45Z"/><path class="cls-10" d="M79.7,165.76l-5-31.61s-26,1.79-32.9.06c4.09,4.23-2.2,31.15,1.2,31.62,3.84.54,7.74,14.65,8.88,17.53s1.29,6.21,1.76,9.22c.64,4,1.66,7.92,2.58,11.9a.84.84,0,0,0,1,.83c1.06.08,3.4.52,1.69,2-.4.34-.9.54-1.3.88a1.25,1.25,0,0,0-.49,1.38,1.29,1.29,0,0,0,1.06.63,8.3,8.3,0,0,1,1.29.14.56.56,0,0,1,.34.21.64.64,0,0,1,.06.39,6.88,6.88,0,0,1-1.22,3.8c-.47.7-1.85,2.35-.62,3l1.82,1a.68.68,0,0,1,.26.2c.22.34-.25.69-.59.9a3.71,3.71,0,0,0-1.57,2.41c-.5,2.24.39,4.78.26,7.12-.45,7.87-1.58,15.67-2.36,23.5-.7,7-.61,12.88,2.47,19.17a3.34,3.34,0,0,1,.45,1.59c-.05,1-.9,1.76-1.54,2.54s-1.08,2-.38,2.74,1.77.65,1.88,1.47-1,1.18-1.7,1.71c-1.79,1.44.22,6.4.08,8.48l17.06,1.53c1.07.09,2.79-11.87,3.1-13.26-.54.44-1.44.63-2,1.07.44-4.81,2.54-8.28,1.21-13.4-.92-3.56,1.49-8.72,2.13-12.35.82-4.63,1.79-9.2,2.83-13.78,1.09-4.79.94-10,1.65-14.83,1.71-11.8-1.44-21-1.93-32.7C80.73,183.79,81.13,174.84,79.7,165.76Z"/><path class="cls-11" d="M71.16,53.58,60.68,51.81l-6.79,2S44.13,48.25,44,47.56s-8.53,6.24-8.53,6.24c-.38.32,4,9.3,4.3,10,2.71,6.22,6.24,12.18,7,18.91a178.81,178.81,0,0,1,.79,33.76c-.36,5-1.65,9.66-2.14,14.61l-1.73,17.46a1.5,1.5,0,0,0,0,.72c.2.5.84.62,1.37.66,4.82.35,9.83-.76,14.43.73,2.47.8,4.88,2.34,7.45,2,1.57-4.19,3.24-8.35,5.21-12.37,1.42-2.91,4.11-6,3.1-9.37-.95-3.18-2.11-6.05-2.87-9.35-.93-4-2.31-7.87-3-11.92a52.76,52.76,0,0,1,0-16.66c.8-5,2.4-9.12,4.13-13.73C74.51,77,71.16,53.58,71.16,53.58Z"/><path class="cls-12" d="M35.47,133.45c-2.17,0-15.67,19.18-15.67,19.18v22.44l1.65,10.66,1.26,8.11c.18,1.14.55,2.32.7,3.44a28.87,28.87,0,0,1-.38,6,.5.5,0,0,0,0,.31c.13.2.42.13.66.14.65,0,.9.93.64,1.53a6.09,6.09,0,0,1-1.27,1.46,1.57,1.57,0,0,0-.43,1.76,7.79,7.79,0,0,1,3.28.62,42.39,42.39,0,0,0-3.37,5.72c2.22-1.14-1,9.11-.66,9.83s1.61,1.13,2,.38c-1.63,2.95-.59,10.49-1.21,14-.77,4.4-.62,13.43-.62,13.43s3.83,12.88,5,18.13c.81,3.69.25,9.87,3,12.62a2.32,2.32,0,0,1,.74,1c.32,1.32-2,2.3-1.5,3.55.32.75,1.35.73,2.16.81,2.83.27-1.77,3.46.81,5.5,1.51,1.19,5.21.68,7,.76,3,.13,12.54,1.88,12.69-2.3a6.45,6.45,0,0,0-.58-2.59,23.14,23.14,0,0,0-2.14-4.12,2.74,2.74,0,0,1-.52-1.11,5.92,5.92,0,0,1,.41-1.8c.2-1-.32-2.07-.43-3.12-.18-1.7.93-2.75,1.2-4.28a18.09,18.09,0,0,0-.17-3.59c-.13-3.06-.22-6.12-.32-9.18-.12-3.8-.15-7.62-.4-11.42-.58-8.78-3.47-17.7-.44-25.94,3.32-9,2.2-17.2,3.43-26.64,1.35-10.37,4.13-20.66,6.76-30.8L65.59,142S37.64,133.45,35.47,133.45Z"/><polygon class="cls-10" points="35.47 133.45 74.83 134.17 74.83 142.86 35.47 145.7 35.47 133.45"/><path class="cls-13" d="M63.24,47.37l-6.6,4.47S42.07,45.27,41.38,38.3c-4.12,6-4.09,8.28-4.09,8.28l11,14.19,8.32-7,9,7Z"/><path class="cls-8" d="M60.47,63c2.76-6.89-.69-9-.69-9h-5L52.1,57.69l4.58,6.8L52.27,80.63l4.36,9.22L61.54,68Z"/><polygon class="cls-9" points="63.33 46.43 77.54 50.05 78.1 81.14 75.84 104.92 78.86 150.5 61.47 156.32 56.91 115.88 56.63 156.32 17.09 153.45 26.29 96.46 20.91 50.85 39.38 42.16 56.63 89.85 63.33 46.43"/><path class="cls-14" d="M26.57,53.8l-5.66-2.94-8,3.08c-.88.49-1.8,3.71-2.22,4.58-1.5,3.09.1,5.83-1.4,8.92-3.39,7-3.63,13.83-3.53,21.43,0,1.92,0,3.95-.94,5.61a2.88,2.88,0,0,0-.55,1.28c0,.81.78,1.42.89,2.22a3.35,3.35,0,0,1-.44,1.66c-.73,1.76-.27,3.55-.56,5.32-.71,4.44-2,9.16-1.73,13.67a1.81,1.81,0,0,0,.54-.16c-.39,3.67-2.08,6.69-2.72,10.27-.91,5.08,1.29,24.43.59,29.54,4.35-.28,18,0,18,0,1.16.08,1.92-28.05,1.48-29.6-.81-2.86-.82-2.36.73-5.39a14.28,14.28,0,0,0,1.46-6c.34-4.75.5-9.52.76-14.28l6.41-22.42Z"/><circle class="cls-10" cx="56.91" cy="96.49" r="2.2"/><circle class="cls-10" cx="56.91" cy="108.16" r="2.2"/><circle class="cls-10" cx="59.11" cy="119.15" r="2.2"/><polygon class="cls-10" points="29.64 46.74 35.49 53.8 32.23 59.35 55.15 94.29 29.64 60.76 33.83 53.8 29.64 46.74"/><polygon class="cls-10" points="59.38 91.92 70.04 59.31 67.98 53.94 67.64 48.45 69.04 53.8 71.31 59.03 59.38 91.92"/><path class="cls-14" d="M98.94,52.62c-1.31,2.34-13.4,23-13.4,23L77.54,50a2.56,2.56,0,0,0-.94.67q0,2.18,0,4.36a7,7,0,0,1,0,4.15q0,12.36,0,24.71c0,3.29-.24,6.66-.42,10l7.41,6.1,7.66.86c2.23-4.32,6.63-6.8,9-11,1.17-2.35,3.31-5.83,4.27-8.28.35-.88.26-1.78.58-2.67a16.7,16.7,0,0,1,1.54-3.19,9,9,0,0,0,.72-2.17c-2.37.1.16-2.42.54-3.25a14.31,14.31,0,0,0,1-4c.33-2.32,8.3-8.13,2.61-7.7C111.38,58.56,102.16,54.56,98.94,52.62Z"/></g></g></g></svg>