<svg id="Layer_1" data-name="Layer 1" xmlns="http://www.w3.org/2000/svg" viewBox="0 0 877.06 458"><defs><style>.cls-1{fill:#467236;}.cls-2{fill:#efe6e1;}.cls-3{fill:#684234;}.cls-4,.cls-8{fill:#845642;}.cls-5{fill:#eab686;}.cls-6{fill:#d19a6d;}.cls-7{fill:#fff;}.cls-8{opacity:0.3;}.cls-9{fill:#da3624;}.cls-10{fill:#e0aa85;}.cls-11{fill:#b72929;}.cls-12,.cls-13{fill:none;stroke-miterlimit:10;stroke-width:8.9px;}.cls-12{stroke:#b27759;}.cls-13{stroke:#d19a6d;}</style></defs><title>university</title><path class="cls-1" d="M773,463.32a67.14,67.14,0,0,1,39,29.52,2.57,2.57,0,0,0,2.57,1.23,47.87,47.87,0,0,1,52.71,32.05,2.58,2.58,0,0,0,2.49,1.72h0A24.3,24.3,0,0,1,894,549.27a2.58,2.58,0,0,1-2.56,2.86H773Z" transform="translate(-16.94 -94.63)"/><path class="cls-1" d="M115.38,479a54.64,54.64,0,0,0-31.76,24,2.09,2.09,0,0,1-2.09,1,39,39,0,0,0-42.89,26.09,2.1,2.1,0,0,1-2,1.4h0A19.78,19.78,0,0,0,17,548.92,2.1,2.1,0,0,0,19,551.25h96.34Z" transform="translate(-16.94 -94.63)"/><rect class="cls-2" x="624.46" y="245.42" width="181.65" height="208.13"/><path class="cls-3" d="M683.36,383.6h3.57a6.4,6.4,0,0,1,6.4,6.4v42.38H677V390A6.4,6.4,0,0,1,683.36,383.6Z" transform="translate(-16.94 -94.63)"/><path class="cls-3" d="M733,383.6h3.57A6.4,6.4,0,0,1,743,390v42.38H726.63V390A6.4,6.4,0,0,1,733,383.6Z" transform="translate(-16.94 -94.63)"/><path class="cls-3" d="M784,383.6h3.57A6.4,6.4,0,0,1,794,390v42.38H777.6V390A6.4,6.4,0,0,1,784,383.6Z" transform="translate(-16.94 -94.63)"/><path class="cls-4" d="M683.46,388.48H687a6.4,6.4,0,0,1,6.4,6.4v37.53H677.05V394.89A6.4,6.4,0,0,1,683.46,388.48Z" transform="translate(-16.94 -94.63)"/><path class="cls-4" d="M733.13,388.48h3.57a6.4,6.4,0,0,1,6.4,6.4v37.53H726.72V394.89A6.4,6.4,0,0,1,733.13,388.48Z" transform="translate(-16.94 -94.63)"/><path class="cls-4" d="M784.1,388.48h3.57a6.4,6.4,0,0,1,6.4,6.4v37.53H777.7V394.89A6.4,6.4,0,0,1,784.1,388.48Z" transform="translate(-16.94 -94.63)"/><path class="cls-3" d="M683.36,472h3.57a6.4,6.4,0,0,1,6.4,6.4v42.38H677V478.39A6.4,6.4,0,0,1,683.36,472Z" transform="translate(-16.94 -94.63)"/><path class="cls-3" d="M733,472h3.57a6.4,6.4,0,0,1,6.4,6.4v42.38H726.63V478.39A6.4,6.4,0,0,1,733,472Z" transform="translate(-16.94 -94.63)"/><path class="cls-3" d="M784,472h3.57a6.4,6.4,0,0,1,6.4,6.4v42.38H777.6V478.39A6.4,6.4,0,0,1,784,472Z" transform="translate(-16.94 -94.63)"/><path class="cls-4" d="M683.46,476.87H687a6.4,6.4,0,0,1,6.4,6.4V520.8H677.05V483.27A6.4,6.4,0,0,1,683.46,476.87Z" transform="translate(-16.94 -94.63)"/><path class="cls-4" d="M733.13,476.87h3.57a6.4,6.4,0,0,1,6.4,6.4V520.8H726.72V483.27A6.4,6.4,0,0,1,733.13,476.87Z" transform="translate(-16.94 -94.63)"/><path class="cls-4" d="M784.1,476.87h3.57a6.4,6.4,0,0,1,6.4,6.4V520.8H777.7V483.27A6.4,6.4,0,0,1,784.1,476.87Z" transform="translate(-16.94 -94.63)"/><rect class="cls-5" x="561.12" y="233.24" width="252.89" height="7.31"/><polygon class="cls-6" points="805.89 245.42 569.24 245.42 561.12 240.55 814.01 240.55 805.89 245.42"/><rect class="cls-7" x="578.43" y="218.69" width="235.58" height="14.55"/><rect class="cls-3" x="660.11" y="260.41" width="16.38" height="9.98" rx="2.12" ry="2.12"/><rect class="cls-3" x="710.38" y="260.41" width="16.38" height="9.98" rx="2.12" ry="2.12"/><rect class="cls-3" x="760.66" y="260.41" width="16.38" height="9.98" rx="2.12" ry="2.12"/><polygon class="cls-8" points="624.46 245.42 624.46 453.55 806.11 453.55 647.25 254.73 806.11 254.62 806.11 245.31 624.46 245.42"/><path class="cls-9" d="M800.32,313.29c-15.65-14.83-38.88-24.23-64.8-24.23s-49.15,9.4-64.8,24.23Z" transform="translate(-16.94 -94.63)"/><polygon class="cls-7" points="688.92 167.41 684.4 162.89 752.75 162.89 748.23 167.41 748.23 197.07 688.92 197.07 688.92 167.41"/><path class="cls-6" d="M742.39,288.4V267.3a3.64,3.64,0,0,1,3.64-3.64h.07a3.64,3.64,0,0,1,3.64,3.64v21.1a2.33,2.33,0,0,1-2.33,2.33h-2.7A2.33,2.33,0,0,1,742.39,288.4Z" transform="translate(-16.94 -94.63)"/><path class="cls-10" d="M742.39,288.19V270.7a3.64,3.64,0,0,1,3.64-3.64h.07a3.64,3.64,0,0,1,3.64,3.64v17.49a2.33,2.33,0,0,1-2.33,2.33h-2.7A2.33,2.33,0,0,1,742.39,288.19Z" transform="translate(-16.94 -94.63)"/><rect class="cls-3" x="726.78" y="172.95" width="4.71" height="22.43" rx="2.33" ry="2.33"/><path class="cls-6" d="M752.91,288.4V267.3a3.64,3.64,0,0,1,3.64-3.64h.07a3.64,3.64,0,0,1,3.64,3.64v21.1a2.33,2.33,0,0,1-2.33,2.33h-2.7A2.33,2.33,0,0,1,752.91,288.4Z" transform="translate(-16.94 -94.63)"/><path class="cls-10" d="M752.91,288.19V270.7a3.64,3.64,0,0,1,3.64-3.64h.07a3.64,3.64,0,0,1,3.64,3.64v17.49a2.33,2.33,0,0,1-2.33,2.33h-2.7A2.33,2.33,0,0,1,752.91,288.19Z" transform="translate(-16.94 -94.63)"/><rect class="cls-3" x="737.3" y="172.95" width="4.71" height="22.43" rx="2.33" ry="2.33"/><path class="cls-6" d="M731.87,288.4V267.3a3.64,3.64,0,0,1,3.64-3.64h.07a3.64,3.64,0,0,1,3.64,3.64v21.1a2.33,2.33,0,0,1-2.33,2.33h-2.7A2.33,2.33,0,0,1,731.87,288.4Z" transform="translate(-16.94 -94.63)"/><path class="cls-10" d="M731.87,288.19V270.7a3.64,3.64,0,0,1,3.64-3.64h.07a3.64,3.64,0,0,1,3.64,3.64v17.49a2.33,2.33,0,0,1-2.33,2.33h-2.7A2.33,2.33,0,0,1,731.87,288.19Z" transform="translate(-16.94 -94.63)"/><rect class="cls-3" x="716.26" y="172.95" width="4.71" height="22.43" rx="2.33" ry="2.33"/><polygon class="cls-6" points="748.23 167.41 688.92 167.41 684.4 162.89 753.17 162.89 748.23 167.41"/><rect class="cls-4" x="726.78" y="176.11" width="4.71" height="19.27" rx="2.33" ry="2.33"/><rect class="cls-4" x="737.3" y="176.11" width="4.71" height="19.27" rx="2.33" ry="2.33"/><rect class="cls-4" x="716.26" y="176.11" width="4.71" height="19.27" rx="2.33" ry="2.33"/><rect class="cls-8" x="688.92" y="167.34" width="59.32" height="5.31"/><path class="cls-6" d="M710.76,288.4V267.3a3.64,3.64,0,0,1,3.64-3.64h.07a3.64,3.64,0,0,1,3.64,3.64v21.1a2.33,2.33,0,0,1-2.33,2.33h-2.7A2.33,2.33,0,0,1,710.76,288.4Z" transform="translate(-16.94 -94.63)"/><path class="cls-10" d="M710.76,288.19V270.7a3.64,3.64,0,0,1,3.64-3.64h.07a3.64,3.64,0,0,1,3.64,3.64v17.49a2.33,2.33,0,0,1-2.33,2.33h-2.7A2.33,2.33,0,0,1,710.76,288.19Z" transform="translate(-16.94 -94.63)"/><rect class="cls-3" x="695.14" y="172.95" width="4.71" height="22.43" rx="2.33" ry="2.33"/><path class="cls-6" d="M721.28,288.4V267.3a3.64,3.64,0,0,1,3.64-3.64H725a3.64,3.64,0,0,1,3.64,3.64v21.1a2.33,2.33,0,0,1-2.33,2.33h-2.7A2.33,2.33,0,0,1,721.28,288.4Z" transform="translate(-16.94 -94.63)"/><path class="cls-10" d="M721.28,288.19V270.7a3.64,3.64,0,0,1,3.64-3.64H725a3.64,3.64,0,0,1,3.64,3.64v17.49a2.33,2.33,0,0,1-2.33,2.33h-2.7A2.33,2.33,0,0,1,721.28,288.19Z" transform="translate(-16.94 -94.63)"/><rect class="cls-3" x="705.67" y="172.95" width="4.71" height="22.43" rx="2.33" ry="2.33"/><rect class="cls-4" x="695.14" y="176.11" width="4.71" height="19.27" rx="2.33" ry="2.33"/><rect class="cls-4" x="705.67" y="176.11" width="4.71" height="19.27" rx="2.33" ry="2.33"/><path class="cls-7" d="M767.15,248h-.06a3,3,0,0,0-3,3v2.51h-9.76v-2.51a3,3,0,0,0-3-3h-.06a3,3,0,0,0-3,3v2.51h-9.76v-2.51a3,3,0,0,0-3-3h-.06a3,3,0,0,0-3,3v2.51H723v-2.51a3,3,0,0,0-3-3H720a3,3,0,0,0-3,3v2.51h-9.76v-2.51a3,3,0,0,0-3-3h-.06a3,3,0,0,0-3,3v6.58h68.76v-6.58A3,3,0,0,0,767.15,248Z" transform="translate(-16.94 -94.63)"/><rect class="cls-6" x="688.92" y="197.07" width="59.32" height="2.72"/><path class="cls-11" d="M670.71,313.32H800.32a79.55,79.55,0,0,0-8-6.65H678.75A79.55,79.55,0,0,0,670.71,313.32Z" transform="translate(-16.94 -94.63)"/><rect class="cls-2" x="60" y="245.41" width="181.65" height="208.13"/><path class="cls-3" d="M216.64,383.59h-3.57a6.4,6.4,0,0,0-6.4,6.4v42.38H223V390A6.4,6.4,0,0,0,216.64,383.59Z" transform="translate(-16.94 -94.63)"/><path class="cls-3" d="M167,383.59H163.4A6.4,6.4,0,0,0,157,390v42.38h16.38V390A6.4,6.4,0,0,0,167,383.59Z" transform="translate(-16.94 -94.63)"/><path class="cls-3" d="M116,383.59h-3.57A6.4,6.4,0,0,0,106,390v42.38H122.4V390A6.4,6.4,0,0,0,116,383.59Z" transform="translate(-16.94 -94.63)"/><path class="cls-4" d="M216.54,388.48H213a6.4,6.4,0,0,0-6.4,6.4v37.53h16.38V394.88A6.4,6.4,0,0,0,216.54,388.48Z" transform="translate(-16.94 -94.63)"/><path class="cls-4" d="M166.87,388.48H163.3a6.4,6.4,0,0,0-6.4,6.4v37.53h16.38V394.88A6.4,6.4,0,0,0,166.87,388.48Z" transform="translate(-16.94 -94.63)"/><path class="cls-4" d="M115.9,388.48h-3.57a6.4,6.4,0,0,0-6.4,6.4v37.53H122.3V394.88A6.4,6.4,0,0,0,115.9,388.48Z" transform="translate(-16.94 -94.63)"/><path class="cls-3" d="M216.64,472h-3.57a6.4,6.4,0,0,0-6.4,6.4v42.38H223V478.38A6.4,6.4,0,0,0,216.64,472Z" transform="translate(-16.94 -94.63)"/><path class="cls-3" d="M167,472H163.4a6.4,6.4,0,0,0-6.4,6.4v42.38h16.38V478.38A6.4,6.4,0,0,0,167,472Z" transform="translate(-16.94 -94.63)"/><path class="cls-3" d="M116,472h-3.57a6.4,6.4,0,0,0-6.4,6.4v42.38H122.4V478.38A6.4,6.4,0,0,0,116,472Z" transform="translate(-16.94 -94.63)"/><path class="cls-4" d="M216.54,476.87H213a6.4,6.4,0,0,0-6.4,6.4V520.8h16.38V483.27A6.4,6.4,0,0,0,216.54,476.87Z" transform="translate(-16.94 -94.63)"/><path class="cls-4" d="M166.87,476.87H163.3a6.4,6.4,0,0,0-6.4,6.4V520.8h16.38V483.27A6.4,6.4,0,0,0,166.87,476.87Z" transform="translate(-16.94 -94.63)"/><path class="cls-4" d="M115.9,476.87h-3.57a6.4,6.4,0,0,0-6.4,6.4V520.8H122.3V483.27A6.4,6.4,0,0,0,115.9,476.87Z" transform="translate(-16.94 -94.63)"/><rect class="cls-5" x="52.1" y="233.24" width="252.89" height="7.31"/><polygon class="cls-6" points="60.22 245.41 296.88 245.41 304.99 240.54 52.1 240.54 60.22 245.41"/><rect class="cls-7" x="52.1" y="218.68" width="235.58" height="14.55"/><rect class="cls-3" x="189.63" y="260.41" width="16.38" height="9.98" rx="2.12" ry="2.12"/><rect class="cls-3" x="139.35" y="260.41" width="16.38" height="9.98" rx="2.12" ry="2.12"/><rect class="cls-3" x="89.07" y="260.41" width="16.38" height="9.98" rx="2.12" ry="2.12"/><polygon class="cls-8" points="241.09 245.41 241.09 453.55 60 453.55 218.3 254.73 60 254.73 60 245.41 241.09 245.41"/><path class="cls-9" d="M99.68,313.29c15.65-14.83,38.88-24.23,64.8-24.23s49.15,9.4,64.8,24.23Z" transform="translate(-16.94 -94.63)"/><polygon class="cls-7" points="177.2 167.4 181.72 162.89 113.37 162.89 117.88 167.4 117.88 197.07 177.2 197.07 177.2 167.4"/><path class="cls-6" d="M157.61,288.4V267.3a3.64,3.64,0,0,0-3.64-3.64h-.07a3.64,3.64,0,0,0-3.64,3.64v21.1a2.33,2.33,0,0,0,2.33,2.33h2.7A2.33,2.33,0,0,0,157.61,288.4Z" transform="translate(-16.94 -94.63)"/><path class="cls-10" d="M157.61,288.19V270.7a3.64,3.64,0,0,0-3.64-3.64h-.07a3.64,3.64,0,0,0-3.64,3.64v17.49a2.33,2.33,0,0,0,2.33,2.33h2.7A2.33,2.33,0,0,0,157.61,288.19Z" transform="translate(-16.94 -94.63)"/><rect class="cls-3" x="134.63" y="172.95" width="4.71" height="22.43" rx="2.33" ry="2.33"/><path class="cls-6" d="M147.09,288.4V267.3a3.64,3.64,0,0,0-3.64-3.64h-.07a3.64,3.64,0,0,0-3.64,3.64v21.1a2.33,2.33,0,0,0,2.33,2.33h2.7A2.33,2.33,0,0,0,147.09,288.4Z" transform="translate(-16.94 -94.63)"/><path class="cls-10" d="M147.09,288.19V270.7a3.64,3.64,0,0,0-3.64-3.64h-.07a3.64,3.64,0,0,0-3.64,3.64v17.49a2.33,2.33,0,0,0,2.33,2.33h2.7A2.33,2.33,0,0,0,147.09,288.19Z" transform="translate(-16.94 -94.63)"/><rect class="cls-3" x="124.11" y="172.95" width="4.71" height="22.43" rx="2.33" ry="2.33"/><path class="cls-6" d="M168.13,288.4V267.3a3.64,3.64,0,0,0-3.64-3.64h-.07a3.64,3.64,0,0,0-3.64,3.64v21.1a2.33,2.33,0,0,0,2.33,2.33h2.7A2.33,2.33,0,0,0,168.13,288.4Z" transform="translate(-16.94 -94.63)"/><path class="cls-10" d="M168.13,288.19V270.7a3.64,3.64,0,0,0-3.64-3.64h-.07a3.64,3.64,0,0,0-3.64,3.64v17.49a2.33,2.33,0,0,0,2.33,2.33h2.7A2.33,2.33,0,0,0,168.13,288.19Z" transform="translate(-16.94 -94.63)"/><rect class="cls-3" x="145.15" y="172.95" width="4.71" height="22.43" rx="2.33" ry="2.33"/><polygon class="cls-6" points="117.88 167.4 177.2 167.4 181.72 162.89 112.95 162.89 117.88 167.4"/><rect class="cls-4" x="134.63" y="176.11" width="4.71" height="19.27" rx="2.33" ry="2.33"/><rect class="cls-4" x="124.11" y="176.11" width="4.71" height="19.27" rx="2.33" ry="2.33"/><rect class="cls-4" x="145.15" y="176.11" width="4.71" height="19.27" rx="2.33" ry="2.33"/><rect class="cls-8" x="117.88" y="167.34" width="59.32" height="5.31"/><path class="cls-6" d="M189.24,288.4V267.3a3.64,3.64,0,0,0-3.64-3.64h-.07a3.64,3.64,0,0,0-3.64,3.64v21.1a2.33,2.33,0,0,0,2.33,2.33h2.7A2.33,2.33,0,0,0,189.24,288.4Z" transform="translate(-16.94 -94.63)"/><path class="cls-10" d="M189.24,288.19V270.7a3.64,3.64,0,0,0-3.64-3.64h-.07a3.64,3.64,0,0,0-3.64,3.64v17.49a2.33,2.33,0,0,0,2.33,2.33h2.7A2.33,2.33,0,0,0,189.24,288.19Z" transform="translate(-16.94 -94.63)"/><rect class="cls-3" x="166.27" y="172.95" width="4.71" height="22.43" rx="2.33" ry="2.33"/><path class="cls-6" d="M178.72,288.4V267.3a3.64,3.64,0,0,0-3.64-3.64H175a3.64,3.64,0,0,0-3.64,3.64v21.1a2.33,2.33,0,0,0,2.33,2.33h2.7A2.33,2.33,0,0,0,178.72,288.4Z" transform="translate(-16.94 -94.63)"/><path class="cls-10" d="M178.72,288.19V270.7a3.64,3.64,0,0,0-3.64-3.64H175a3.64,3.64,0,0,0-3.64,3.64v17.49a2.33,2.33,0,0,0,2.33,2.33h2.7A2.33,2.33,0,0,0,178.72,288.19Z" transform="translate(-16.94 -94.63)"/><rect class="cls-3" x="155.75" y="172.95" width="4.71" height="22.43" rx="2.33" ry="2.33"/><rect class="cls-4" x="166.27" y="176.11" width="4.71" height="19.27" rx="2.33" ry="2.33"/><rect class="cls-4" x="155.75" y="176.11" width="4.71" height="19.27" rx="2.33" ry="2.33"/><path class="cls-7" d="M132.85,248h.06a3,3,0,0,1,3,3v2.52h9.76v-2.52a3,3,0,0,1,3-3h.06a3,3,0,0,1,3,3v2.52h9.76v-2.52a3,3,0,0,1,3-3h.06a3,3,0,0,1,3,3v2.52H177v-2.52a3,3,0,0,1,3-3H180a3,3,0,0,1,3,3v2.52h9.76v-2.52a3,3,0,0,1,3-3h.06a3,3,0,0,1,3,3v6.58H129.89v-6.58A3,3,0,0,1,132.85,248Z" transform="translate(-16.94 -94.63)"/><rect class="cls-6" x="117.88" y="197.07" width="59.32" height="2.72"/><path class="cls-11" d="M229.29,313.31H99.68a79.55,79.55,0,0,1,8-6.65H221.25A79.55,79.55,0,0,1,229.29,313.31Z" transform="translate(-16.94 -94.63)"/><rect class="cls-7" x="241.11" y="217.06" width="383.35" height="192.62"/><polygon class="cls-7" points="241.1 245.42 624.46 245.42 633.18 236.08 232.39 236.08 241.1 245.42"/><polygon class="cls-7" points="566.75 234.5 298.4 234.5 298.4 244.53 306.13 244.53 306.13 353.69 559.02 353.69 559.02 244.53 566.75 244.53 566.75 234.5"/><rect class="cls-7" x="326.95" y="163.95" width="215.03" height="34.77"/><rect class="cls-5" x="232.99" y="349.03" width="399.59" height="7.91"/><rect class="cls-8" x="326.95" y="165.08" width="215.03" height="17.83"/><rect class="cls-6" x="326.95" y="193.94" width="215.03" height="4.85"/><path class="cls-7" d="M268.46,292.36H631a19.14,19.14,0,0,1,19.14,19.14v.19H249.33v-.19A19.14,19.14,0,0,1,268.46,292.36Z" transform="translate(-16.94 -94.63)"/><rect class="cls-5" x="232.39" y="216.87" width="400.79" height="5.25"/><rect class="cls-6" x="232.39" y="222.12" width="400.79" height="5.25"/><polygon class="cls-6" points="624.46 364.85 241.1 364.85 232.99 356.94 632.58 356.94 624.46 364.85"/><rect class="cls-5" x="347.77" y="78.62" width="171.45" height="5.3"/><polygon class="cls-7" points="528.53 92.52 339.02 92.52 347.77 83.92 519.22 83.92 528.53 92.52"/><rect class="cls-7" x="332.92" y="96.2" width="200.55" height="67.57"/><rect class="cls-10" x="346.01" y="103.86" width="13.56" height="59.91"/><rect class="cls-10" x="372.41" y="103.86" width="13.56" height="59.91"/><rect class="cls-10" x="399.39" y="103.86" width="13.56" height="59.91"/><rect class="cls-10" x="425.79" y="103.86" width="13.56" height="59.91"/><rect class="cls-10" x="453.44" y="103.86" width="13.56" height="59.91"/><rect class="cls-10" x="480.42" y="103.86" width="13.56" height="59.91"/><rect class="cls-10" x="506.83" y="103.86" width="13.56" height="59.91"/><rect class="cls-8" x="332.92" y="96.2" width="200.55" height="16.89"/><rect class="cls-6" x="328.44" y="91.28" width="210.11" height="4.94"/><rect class="cls-5" x="331.3" y="96.23" width="205.33" height="4.94"/><rect class="cls-6" x="328.44" y="101.17" width="210.11" height="4.94"/><path class="cls-4" d="M369.46,214.18h.1a5.07,5.07,0,0,1,5.07,5.07v39.18H364.39V219.25A5.07,5.07,0,0,1,369.46,214.18Z" transform="translate(-16.94 -94.63)"/><path class="cls-4" d="M396.07,214.18h.1a5.07,5.07,0,0,1,5.07,5.07v39.18H391V219.25A5.07,5.07,0,0,1,396.07,214.18Z" transform="translate(-16.94 -94.63)"/><path class="cls-4" d="M423.06,214.18h.1a5.07,5.07,0,0,1,5.07,5.07v39.18H418V219.25A5.07,5.07,0,0,1,423.06,214.18Z" transform="translate(-16.94 -94.63)"/><path class="cls-4" d="M449.67,214.18h.1a5.07,5.07,0,0,1,5.07,5.07v39.18H444.6V219.25A5.07,5.07,0,0,1,449.67,214.18Z" transform="translate(-16.94 -94.63)"/><path class="cls-4" d="M476.94,214h.1a5.07,5.07,0,0,1,5.07,5.07v39.18H471.87V219.11A5.07,5.07,0,0,1,476.94,214Z" transform="translate(-16.94 -94.63)"/><path class="cls-4" d="M503.92,214h.1a5.07,5.07,0,0,1,5.07,5.07v39.18H498.85V219.11A5.07,5.07,0,0,1,503.92,214Z" transform="translate(-16.94 -94.63)"/><path class="cls-4" d="M530.54,214h.1a5.07,5.07,0,0,1,5.07,5.07v39.18H525.47V219.11A5.07,5.07,0,0,1,530.54,214Z" transform="translate(-16.94 -94.63)"/><rect class="cls-6" x="320.66" y="159.01" width="225.91" height="4.94"/><rect class="cls-5" x="323.52" y="163.95" width="221.13" height="4.94"/><rect class="cls-6" x="320.66" y="168.9" width="225.91" height="4.94"/><rect class="cls-5" x="232.39" y="227.36" width="400.79" height="8.73"/><rect class="cls-5" x="417.31" y="244.88" width="30.2" height="92.4" rx="2.4" ry="2.4"/><rect class="cls-5" x="467.26" y="244.88" width="30.2" height="92.4" rx="2.4" ry="2.4"/><rect class="cls-5" x="366.35" y="244.51" width="30.2" height="92.4" rx="2.4" ry="2.4"/><rect class="cls-5" x="317.18" y="244.51" width="30.2" height="92.4" rx="2.4" ry="2.4"/><rect class="cls-5" x="517.77" y="244.88" width="30.2" height="92.4" rx="2.4" ry="2.4"/><rect class="cls-5" x="354.36" y="244.16" width="4.85" height="93.09" rx="2.4" ry="2.4"/><rect class="cls-5" x="504.74" y="244.16" width="4.85" height="93.09" rx="2.4" ry="2.4"/><rect class="cls-5" x="454.82" y="244.53" width="4.85" height="93.09" rx="2.4" ry="2.4"/><rect class="cls-5" x="404.83" y="244.53" width="4.85" height="93.09" rx="2.4" ry="2.4"/><polygon class="cls-8" points="624.46 268.35 241.1 268.35 241.1 245.42 232.39 236.1 633.18 236.1 624.46 245.42 624.46 268.35"/><rect class="cls-3" x="424.38" y="260.41" width="16.38" height="9.98" rx="2.12" ry="2.12"/><rect class="cls-3" x="474.4" y="260.41" width="16.38" height="9.98" rx="2.12" ry="2.12"/><rect class="cls-3" x="323.59" y="260.41" width="16.38" height="9.98" rx="2.12" ry="2.12"/><rect class="cls-3" x="373.61" y="260.41" width="16.38" height="9.98" rx="2.12" ry="2.12"/><rect class="cls-3" x="524.68" y="260.41" width="16.38" height="9.98" rx="2.12" ry="2.12"/><path class="cls-3" d="M346.93,382.76h3.57a6.4,6.4,0,0,1,6.4,6.4v42.38H340.53V389.16A6.4,6.4,0,0,1,346.93,382.76Z" transform="translate(-16.94 -94.63)"/><path class="cls-3" d="M396.6,382.76h3.57a6.4,6.4,0,0,1,6.4,6.4v42.38H390.2V389.16A6.4,6.4,0,0,1,396.6,382.76Z" transform="translate(-16.94 -94.63)"/><path class="cls-3" d="M447.58,382.76h3.57a6.4,6.4,0,0,1,6.4,6.4v42.38H441.17V389.16A6.4,6.4,0,0,1,447.58,382.76Z" transform="translate(-16.94 -94.63)"/><path class="cls-3" d="M497.25,382.76h3.57a6.4,6.4,0,0,1,6.4,6.4v42.38H490.84V389.16A6.4,6.4,0,0,1,497.25,382.76Z" transform="translate(-16.94 -94.63)"/><path class="cls-3" d="M548,382.76h3.57a6.4,6.4,0,0,1,6.4,6.4v42.38H541.62V389.16A6.4,6.4,0,0,1,548,382.76Z" transform="translate(-16.94 -94.63)"/><path class="cls-4" d="M347,387.64h3.57A6.4,6.4,0,0,1,357,394v37.53H340.63V394A6.4,6.4,0,0,1,347,387.64Z" transform="translate(-16.94 -94.63)"/><path class="cls-4" d="M396.7,387.64h3.57a6.4,6.4,0,0,1,6.4,6.4v37.53H390.3V394A6.4,6.4,0,0,1,396.7,387.64Z" transform="translate(-16.94 -94.63)"/><path class="cls-4" d="M447.67,387.64h3.57a6.4,6.4,0,0,1,6.4,6.4v37.53H441.27V394A6.4,6.4,0,0,1,447.67,387.64Z" transform="translate(-16.94 -94.63)"/><path class="cls-4" d="M497.34,387.64h3.57a6.4,6.4,0,0,1,6.4,6.4v37.53H490.94V394A6.4,6.4,0,0,1,497.34,387.64Z" transform="translate(-16.94 -94.63)"/><path class="cls-4" d="M548.12,387.64h3.57a6.4,6.4,0,0,1,6.4,6.4v37.53H541.72V394A6.4,6.4,0,0,1,548.12,387.64Z" transform="translate(-16.94 -94.63)"/><rect class="cls-8" x="241.11" y="364.85" width="383.35" height="17.43"/><rect class="cls-5" x="305.96" y="343.95" width="252.89" height="7.31"/><polygon class="cls-6" points="550.74 356.13 314.08 356.13 305.96 351.25 558.85 351.25 550.74 356.13"/><rect class="cls-7" x="314.08" y="356.13" width="236.66" height="40.29"/><polyline class="cls-8" points="550.74 356.13 550.74 369.11 314.08 369.11 314.08 356.13"/><rect class="cls-3" x="273.67" y="260.41" width="16.38" height="9.98" rx="2.12" ry="2.12"/><rect class="cls-3" x="574.96" y="260.41" width="16.38" height="9.98" rx="2.12" ry="2.12"/><path class="cls-3" d="M297,382.74h3.57a6.4,6.4,0,0,1,6.4,6.4v42.38H290.61V389.14A6.4,6.4,0,0,1,297,382.74Z" transform="translate(-16.94 -94.63)"/><path class="cls-4" d="M297.11,387.62h3.57a6.4,6.4,0,0,1,6.4,6.4v37.53H290.71V394A6.4,6.4,0,0,1,297.11,387.62Z" transform="translate(-16.94 -94.63)"/><path class="cls-3" d="M597.7,382.74h3.57a6.4,6.4,0,0,1,6.4,6.4v42.38H591.29V389.14A6.4,6.4,0,0,1,597.7,382.74Z" transform="translate(-16.94 -94.63)"/><path class="cls-4" d="M597.79,387.62h3.57a6.4,6.4,0,0,1,6.4,6.4v37.53H591.39V394A6.4,6.4,0,0,1,597.79,387.62Z" transform="translate(-16.94 -94.63)"/><rect class="cls-7" x="241.11" y="376.27" width="383.35" height="77.28"/><path class="cls-3" d="M347.47,472H351a6.4,6.4,0,0,1,6.4,6.4V520.8H341.06V478.42A6.4,6.4,0,0,1,347.47,472Z" transform="translate(-16.94 -94.63)"/><path class="cls-3" d="M397.14,472h3.57a6.4,6.4,0,0,1,6.4,6.4V520.8H390.74V478.42A6.4,6.4,0,0,1,397.14,472Z" transform="translate(-16.94 -94.63)"/><path class="cls-3" d="M448.11,472h3.57a6.4,6.4,0,0,1,6.4,6.4V520.8H441.71V478.42A6.4,6.4,0,0,1,448.11,472Z" transform="translate(-16.94 -94.63)"/><path class="cls-3" d="M497.78,472h3.57a6.4,6.4,0,0,1,6.4,6.4V520.8H491.38V478.42A6.4,6.4,0,0,1,497.78,472Z" transform="translate(-16.94 -94.63)"/><path class="cls-3" d="M548.56,472h3.57a6.4,6.4,0,0,1,6.4,6.4V520.8H542.16V478.42A6.4,6.4,0,0,1,548.56,472Z" transform="translate(-16.94 -94.63)"/><path class="cls-4" d="M347.57,476.91h3.57a6.4,6.4,0,0,1,6.4,6.4v37.53H341.16V483.31A6.4,6.4,0,0,1,347.57,476.91Z" transform="translate(-16.94 -94.63)"/><path class="cls-4" d="M397.24,476.91h3.57a6.4,6.4,0,0,1,6.4,6.4v37.53H390.83V483.31A6.4,6.4,0,0,1,397.24,476.91Z" transform="translate(-16.94 -94.63)"/><path class="cls-4" d="M448.21,476.91h3.57a6.4,6.4,0,0,1,6.4,6.4v37.53H441.81V483.31A6.4,6.4,0,0,1,448.21,476.91Z" transform="translate(-16.94 -94.63)"/><path class="cls-4" d="M497.88,476.91h3.57a6.4,6.4,0,0,1,6.4,6.4v37.53H491.48V483.31A6.4,6.4,0,0,1,497.88,476.91Z" transform="translate(-16.94 -94.63)"/><path class="cls-4" d="M548.66,476.91h3.57a6.4,6.4,0,0,1,6.4,6.4v37.53H542.25V483.31A6.4,6.4,0,0,1,548.66,476.91Z" transform="translate(-16.94 -94.63)"/><path class="cls-3" d="M297.55,472h3.57a6.4,6.4,0,0,1,6.4,6.4v42.38H291.14V478.41A6.4,6.4,0,0,1,297.55,472Z" transform="translate(-16.94 -94.63)"/><path class="cls-4" d="M297.64,476.89h3.57a6.4,6.4,0,0,1,6.4,6.4v37.53H291.24V483.29A6.4,6.4,0,0,1,297.64,476.89Z" transform="translate(-16.94 -94.63)"/><path class="cls-3" d="M598.23,472h3.57a6.4,6.4,0,0,1,6.4,6.4v42.38H591.83V478.41A6.4,6.4,0,0,1,598.23,472Z" transform="translate(-16.94 -94.63)"/><path class="cls-4" d="M598.33,476.89h3.57a6.4,6.4,0,0,1,6.4,6.4v37.53H591.92V483.29A6.4,6.4,0,0,1,598.33,476.89Z" transform="translate(-16.94 -94.63)"/><polygon class="cls-8" points="314.08 372.21 314.08 453.55 241.1 453.55 314.08 372.21"/><polygon class="cls-8" points="550.74 372.21 550.74 453.55 625.02 453.55 550.74 372.21"/><line class="cls-12" x1="60" y1="453.55" x2="241.09" y2="453.55"/><line class="cls-12" x1="625.03" y1="453.55" x2="806.11" y2="453.55"/><line class="cls-13" x1="241.09" y1="453.55" x2="625.03" y2="453.55"/><path class="cls-9" d="M528.87,172.76c-18.73-17.75-46.51-29-77.53-29s-58.8,11.25-77.53,29Z" transform="translate(-16.94 -94.63)"/><polygon class="cls-7" points="398.92 16.81 393.52 11.41 475.28 11.41 469.88 16.81 469.88 52.3 398.92 52.3 398.92 16.81"/><path class="cls-6" d="M459.57,143V117.74a4.36,4.36,0,0,1,4.36-4.36H464a4.36,4.36,0,0,1,4.36,4.36V143a2.79,2.79,0,0,1-2.79,2.79h-3.23A2.79,2.79,0,0,1,459.57,143Z" transform="translate(-16.94 -94.63)"/><path class="cls-10" d="M459.57,142.74V121.81a4.36,4.36,0,0,1,4.36-4.36H464a4.36,4.36,0,0,1,4.36,4.36v20.93a2.79,2.79,0,0,1-2.79,2.79h-3.23A2.79,2.79,0,0,1,459.57,142.74Z" transform="translate(-16.94 -94.63)"/><rect class="cls-3" x="444.21" y="23.44" width="5.63" height="26.83" rx="2.79" ry="2.79"/><path class="cls-6" d="M472.16,143V117.74a4.36,4.36,0,0,1,4.36-4.36h.09a4.36,4.36,0,0,1,4.36,4.36V143a2.79,2.79,0,0,1-2.79,2.79h-3.23A2.79,2.79,0,0,1,472.16,143Z" transform="translate(-16.94 -94.63)"/><path class="cls-10" d="M472.16,142.74V121.81a4.36,4.36,0,0,1,4.36-4.36h.09a4.36,4.36,0,0,1,4.36,4.36v20.93a2.79,2.79,0,0,1-2.79,2.79h-3.23A2.79,2.79,0,0,1,472.16,142.74Z" transform="translate(-16.94 -94.63)"/><rect class="cls-3" x="456.8" y="23.44" width="5.63" height="26.83" rx="2.79" ry="2.79"/><path class="cls-6" d="M447,143V117.74a4.36,4.36,0,0,1,4.36-4.36h.09a4.36,4.36,0,0,1,4.36,4.36V143a2.79,2.79,0,0,1-2.79,2.79h-3.23A2.79,2.79,0,0,1,447,143Z" transform="translate(-16.94 -94.63)"/><path class="cls-10" d="M447,142.74V121.81a4.36,4.36,0,0,1,4.36-4.36h.09a4.36,4.36,0,0,1,4.36,4.36v20.93a2.79,2.79,0,0,1-2.79,2.79h-3.23A2.79,2.79,0,0,1,447,142.74Z" transform="translate(-16.94 -94.63)"/><rect class="cls-3" x="431.63" y="23.44" width="5.63" height="26.83" rx="2.79" ry="2.79"/><polygon class="cls-6" points="469.88 16.81 398.92 16.81 393.52 11.41 475.78 11.41 469.88 16.81"/><rect class="cls-4" x="444.21" y="27.23" width="5.63" height="23.05" rx="2.79" ry="2.79"/><rect class="cls-4" x="456.8" y="27.23" width="5.63" height="23.05" rx="2.79" ry="2.79"/><rect class="cls-4" x="431.63" y="27.23" width="5.63" height="23.05" rx="2.79" ry="2.79"/><rect class="cls-8" x="398.92" y="16.73" width="70.96" height="6.35"/><path class="cls-6" d="M421.72,143V117.74a4.36,4.36,0,0,1,4.36-4.36h.09a4.36,4.36,0,0,1,4.36,4.36V143a2.79,2.79,0,0,1-2.79,2.79h-3.23A2.79,2.79,0,0,1,421.72,143Z" transform="translate(-16.94 -94.63)"/><path class="cls-10" d="M421.72,142.74V121.81a4.36,4.36,0,0,1,4.36-4.36h.09a4.36,4.36,0,0,1,4.36,4.36v20.93a2.79,2.79,0,0,1-2.79,2.79h-3.23A2.79,2.79,0,0,1,421.72,142.74Z" transform="translate(-16.94 -94.63)"/><rect class="cls-3" x="406.37" y="23.44" width="5.63" height="26.83" rx="2.79" ry="2.79"/><path class="cls-6" d="M434.31,143V117.74a4.36,4.36,0,0,1,4.36-4.36h.09a4.36,4.36,0,0,1,4.36,4.36V143a2.79,2.79,0,0,1-2.79,2.79H437.1A2.79,2.79,0,0,1,434.31,143Z" transform="translate(-16.94 -94.63)"/><path class="cls-10" d="M434.31,142.74V121.81a4.36,4.36,0,0,1,4.36-4.36h.09a4.36,4.36,0,0,1,4.36,4.36v20.93a2.79,2.79,0,0,1-2.79,2.79H437.1A2.79,2.79,0,0,1,434.31,142.74Z" transform="translate(-16.94 -94.63)"/><rect class="cls-3" x="418.96" y="23.44" width="5.63" height="26.83" rx="2.79" ry="2.79"/><rect class="cls-4" x="406.37" y="27.23" width="5.63" height="23.05" rx="2.79" ry="2.79"/><rect class="cls-4" x="418.96" y="27.23" width="5.63" height="23.05" rx="2.79" ry="2.79"/><path class="cls-7" d="M489.19,94.63h-.07a3.54,3.54,0,0,0-3.54,3.54v3H473.9v-3a3.54,3.54,0,0,0-3.54-3.54h-.07a3.54,3.54,0,0,0-3.54,3.54v3H455.08v-3a3.54,3.54,0,0,0-3.54-3.54h-.07a3.54,3.54,0,0,0-3.54,3.54v3H436.43v-3a3.54,3.54,0,0,0-3.54-3.54h-.07a3.54,3.54,0,0,0-3.54,3.54v3H417.61v-3a3.54,3.54,0,0,0-3.54-3.54H414a3.54,3.54,0,0,0-3.54,3.54V106h82.27V98.17A3.54,3.54,0,0,0,489.19,94.63Z" transform="translate(-16.94 -94.63)"/><rect class="cls-6" x="398.92" y="52.3" width="70.96" height="3.26"/><path class="cls-11" d="M373.81,172.79H528.87a95.16,95.16,0,0,0-9.61-8H383.42A95.14,95.14,0,0,0,373.81,172.79Z" transform="translate(-16.94 -94.63)"/></svg>